{"title":"ORANGE IS THE NEW BLACK - S1 &amp; S2 [8.5GB DIVX]","uid":10333089,"size":8543182075,"categoryP":"video","categoryS":"tv_shows","magnet":"?xt=urn:btih:5627bcd6d19a5056b5e1c0fb9583523a4fdebe27&amp;dn=ORANGE+IS+THE+NEW+BLACK+-+S1+%26amp%3B+S2+%5B8.5GB+DIVX%5D&amp;tr=udp%3A%2F%2Ftracker.openbittorrent.com%3A80&amp;tr=udp%3A%2F%2Fopen.demonii.com%3A1337&amp;tr=udp%3A%2F%2Ftracker.coppersurfer.tk%3A6969&amp;tr=udp%3A%2F%2Fexodus.desync.com%3A6969","seeders":12,"leechers":7,"uploader":"max_g_force","files":53,"time":1402435392,"description":"I made this to fit on a dual layer 8.5gb DVD \n\nIt's in divx/mp3 format for maximum compatibility.\n\nI've included thumbnails to prove this isn't a fake torrent, or you could just download an episode to check (they average 300mb)\n\n\nI'll make an .MP4/.AAC version of this torrent in the next day or two.  \n\n\n\nTECHNICAL SPECS:\n\n\nFormat                                   : AVI\nFormat/Info                              : Audio Video Interleave\nFile size                                : 317 MiB\nDuration                                 : 58mn 43s\nOverall bit rate                         : 755 Kbps\n\nWriting application                      : Lavf53.32.100\nWriting library                          : VirtualDub build 32842/release\n\nVideo\nID                                       : 0\nFormat                                   : MPEG-4 Visual\nFormat profile                           : Advanced Simple@L5\nFormat settings, BVOP                    : 2\nFormat settings, QPel                    : No\nFormat settings, GMC                     : No warppoints\nFormat settings, Matrix                  : Default (MPEG)\nMuxing mode                              : Packed bitstream\nCodec ID                                 : DX50\nCodec ID/Hint                            : DivX 5\nDuration                                 : 58mn 43s\nBit rate                                 : 648 Kbps\nWidth                                    : 720 pixels\nHeight                                   : 408 pixels\nDisplay aspect ratio                     : 16:9\nFrame rate                               : 29.970 fps\nColor space                              : YUV\nChroma subsampling                       : 4:2:0\nBit depth                                : 8 bits\nScan type                                : Progressive\nCompression mode                         : Lossy\nBits/(Pixel*Frame)                       : 0.074\nStream size                              : 272 MiB (86%)\nWriting library                          : XviD 64\n\nAudio\nID                                       : 1\nFormat                                   : MPEG Audio\nFormat version                           : Version 1\nFormat profile                           : Layer 3\nMode                                     : Joint stereo\nMode extension                           : MS Stereo\nCodec ID                                 : 55\nCodec ID/Hint                            : MP3\nDuration                                 : 58mn 43s\nBit rate mode                            : Constant\nBit rate                                 : 96.0 Kbps\nChannel(s)                               : 2 channels\nSampling rate                            : 44.1 KHz\nCompression mode                         : Lossy\nStream size                              : 40.3 MiB (13%)\nAlignment                                : Split accross interleaves\nInterleave, duration                     : 33 ms (1.00 video frame)\nInterleave, preload duration             : 500 ms\n\n\n\n","torrent":{"xt":"urn:btih:5627bcd6d19a5056b5e1c0fb9583523a4fdebe27","amp;dn":"ORANGE+IS+THE+NEW+BLACK+-+S1+%26amp%3B+S2+%5B8.5GB+DIVX%5D","amp;tr":["udp%3A%2F%2Ftracker.openbittorrent.com%3A80","udp%3A%2F%2Fopen.demonii.com%3A1337","udp%3A%2F%2Ftracker.coppersurfer.tk%3A6969","udp%3A%2F%2Fexodus.desync.com%3A6969"],"infoHash":"5627bcd6d19a5056b5e1c0fb9583523a4fdebe27","infoHashBuffer":{"type":"Buffer","data":[86,39,188,214,209,154,80,86,181,225,192,251,149,131,82,58,79,222,190,39]},"announce":[],"urlList":[]}}